<mxfile host="app.diagrams.net" modified="2023-03-02T05:42:03.700Z" agent="5.0 (Macintosh; Intel Mac OS X 10_15_7) AppleWebKit/537.36 (KHTML, like Gecko) Chrome/110.0.0.0 Safari/537.36" etag="ut4dYPsE6vR-mit8H1_t" version="20.8.23" type="github">
  <diagram name="Puslapis-1" id="QXaIHB3n7ljjZj_HsxJJ">
    <mxGraphModel dx="869" dy="591" grid="1" gridSize="10" guides="1" tooltips="1" connect="1" arrows="1" fold="1" page="1" pageScale="1" pageWidth="827" pageHeight="1169" math="0" shadow="0">
      <root>
        <mxCell id="0" />
        <mxCell id="1" parent="0" />
        <mxCell id="OAq5KtfV8R2RWOu71-3E-1" value="" style="swimlane;startSize=0;fontStyle=0" parent="1" vertex="1">
          <mxGeometry x="310" y="40" width="200" height="370" as="geometry" />
        </mxCell>
        <mxCell id="E9pZhcFubc04Qc_ZevSI-1" value="WhatsTheStatus" style="text;html=1;align=center;verticalAlign=middle;resizable=0;points=[];autosize=1;strokeColor=none;fillColor=none;fontStyle=1" vertex="1" parent="OAq5KtfV8R2RWOu71-3E-1">
          <mxGeometry x="15" width="120" height="30" as="geometry" />
        </mxCell>
        <mxCell id="OAq5KtfV8R2RWOu71-3E-2" value="Customer" style="shape=umlActor;verticalLabelPosition=bottom;verticalAlign=top;html=1;outlineConnect=0;" parent="1" vertex="1">
          <mxGeometry x="170" y="170" width="30" height="60" as="geometry" />
        </mxCell>
        <mxCell id="OAq5KtfV8R2RWOu71-3E-3" value="Company" style="shape=umlActor;verticalLabelPosition=bottom;verticalAlign=top;html=1;outlineConnect=0;" parent="1" vertex="1">
          <mxGeometry x="670" y="170" width="30" height="60" as="geometry" />
        </mxCell>
      </root>
    </mxGraphModel>
  </diagram>
</mxfile>
